<svg viewBox="0 0 24 24" xmlns="http://www.w3.org/2000/svg"><path fill="currentColor" d="M20.52 3.48A11.9 11.9 0 0 0 12.07 0C5.5 0 .2 5.3.2 11.86c0 2.09.54 4.13 1.58 5.94L0 24l6.37-1.67c1.74.95 3.7 1.45 5.7 1.45h.01c6.57 0 11.87-5.3 11.87-11.86 0-3.17-1.23-6.15-3.43-8.44zM12.07 21.2h-.01c-1.77 0-3.5-.47-5.02-1.36l-.36-.21-3.78.99 1.01-3.68-.24-.38a9.86 9.86 0 0 1-1.52-5.02c0-5.45 4.44-9.9 9.9-9.9 2.64 0 5.12 1.03 6.99 2.9a9.78 9.78 0 0 1 2.9 6.98c0 5.45-4.45 9.9-9.87 9.9zm5.4-7.39c-.3-.15-1.76-.87-2.04-.96-.27-.1-.47-.15-.67.15s-.77.96-.95 1.17c-.17.2-.35.22-.64.07-.3-.15-1.26-.46-2.4-1.48-.9-.8-1.51-1.8-1.69-2.1-.17-.3-.02-.47.13-.62.13-.13.3-.34.45-.51.15-.17.2-.29.3-.49.1-.2.05-.37-.02-.52-.07-.15-.67-1.62-.92-2.22-.24-.58-.49-.5-.67-.51h-.57c-.2 0-.52.07-.79.37-.27.3-1.04 1.02-1.04 2.48 0 1.46 1.07 2.87 1.22 3.07.15.2 2.1 3.2 5.08 4.48.71.31 1.26.5 1.69.64.72.23 1.37.2 1.88.12.57-.08 1.76-.72 2.02-1.42.25-.7.25-1.3.17-1.43-.07-.12-.27-.2-.56-.34z"/></svg>
